<svg width="128" height="128" viewBox="0 0 128 128" fill="none" xmlns="http://www.w3.org/2000/svg">
<path d="M128 67.7111C128 99.13 99.3462 124.6 64 124.6C28.6538 124.6 0 99.13 0 67.7111C0 47.1804 12.2352 29.1898 30.5778 19.1863C40.3054 13.8811 51.7509 15.8 64 15.8C75.9519 15.8 87.1386 13.7344 96.7111 18.8041C115.448 28.7272 128 46.9162 128 67.7111Z" fill="#FF4D00"/>
<path d="M64 120.333C30.5239 120.333 4.26667 96.315 4.26667 67.7111C4.26667 48.9736 15.4326 32.3059 32.6206 22.9321C36.6531 20.7329 41.1883 19.9412 46.4828 19.7681C49.1337 19.6814 51.8931 19.7505 54.8378 19.8474C55.2589 19.8613 55.6843 19.8757 56.1133 19.8903C58.6445 19.9763 61.3051 20.0667 64 20.0667C66.8234 20.0667 69.601 19.9552 72.2308 19.8496C72.4808 19.8396 72.7294 19.8296 72.9766 19.8198C75.8626 19.7051 78.5598 19.6111 81.1566 19.6666C86.3425 19.7775 90.7698 20.4856 94.7142 22.5746C112.278 31.8763 123.733 48.7338 123.733 67.7111C123.733 96.315 97.4761 120.333 64 120.333ZM64 124.6C99.3462 124.6 128 99.13 128 67.7111C128 46.9162 115.448 28.7272 96.7111 18.8041C89.3277 14.8938 80.9839 15.2284 72.0694 15.586C69.4264 15.692 66.7332 15.8 64 15.8C61.3837 15.8 58.8041 15.7125 56.2701 15.6265C46.94 15.3099 38.2277 15.0142 30.5778 19.1863C12.2352 29.1898 0 47.1804 0 67.7111C0 99.13 28.6538 124.6 64 124.6Z" fill="black"/>
<path d="M98.8053 110.487C89.0639 116.665 77.0832 120.333 64 120.333C30.5239 120.333 4.26666 96.315 4.26666 67.7111C4.26666 48.9736 15.4326 32.306 32.6206 22.9321C36.2684 20.9427 40.3276 20.1051 44.9881 19.8352C36.4577 29.5891 31.2889 42.3576 31.2889 56.3334C31.2889 86.9667 56.1221 111.8 86.7555 111.8C90.8936 111.8 94.9259 111.347 98.8053 110.487Z" fill="black" fill-opacity="0.26"/>
<path d="M71.1111 22.6741L64 32.1556L56.8889 22.6741L43.3778 28.7078L47.6444 15.7785L41.2444 3.71114L64 14.0546L86.7555 3.71114L80.3555 15.7785L84.6222 28.7078L71.1111 22.6741Z" fill="#B2DF40"/>
<path d="M40.7265 3.22388C40.9351 3.00218 41.2616 2.93781 41.5387 3.06377L64 13.2734L86.4613 3.06377C86.7384 2.93781 87.0649 3.00218 87.2735 3.22388C87.482 3.44557 87.5264 3.77542 87.3838 4.04432L81.1259 15.8437L85.2975 28.4849C85.3857 28.7523 85.3079 29.0466 85.0989 29.2354C84.89 29.4242 84.5894 29.4719 84.3322 29.3571L71.3394 23.5549L64.5689 32.5822C64.4346 32.7613 64.2238 32.8667 64 32.8667C63.7762 32.8667 63.5654 32.7613 63.4311 32.5822L56.6606 23.5549L43.6677 29.3571C43.4106 29.4719 43.11 29.4242 42.901 29.2354C42.6921 29.0466 42.6142 28.7523 42.7025 28.4849L46.8741 15.8437L40.6162 4.04432C40.4736 3.77542 40.5179 3.44557 40.7265 3.22388ZM42.8509 5.22248L48.2727 15.4453C48.3634 15.6165 48.3804 15.8173 48.3197 16.0013L44.5574 27.4022L56.5989 22.0248C56.9021 21.8894 57.2586 21.9818 57.4578 22.2474L64 30.9704L70.5422 22.2474C70.7414 21.9818 71.0979 21.8894 71.4011 22.0248L83.4425 27.4022L79.6802 16.0013C79.6195 15.8173 79.6365 15.6165 79.7273 15.4453L85.149 5.22248L64.2942 14.7019C64.1073 14.7869 63.8927 14.7869 63.7057 14.7019L42.8509 5.22248Z" fill="black"/>
<path d="M48.2727 15.4453L42.8509 5.22249L56.073 11.2325L64.3365 17.2363L61.1212 27.132L57.4578 22.2474C57.2586 21.9818 56.9021 21.8894 56.5989 22.0248L44.5575 27.4022L48.3197 16.0013C48.3805 15.8173 48.3635 15.6165 48.2727 15.4453Z" fill="black" fill-opacity="0.15"/>
</svg>

