<svg width="16" height="16" viewBox="0 0 16 16" fill="none" xmlns="http://www.w3.org/2000/svg">
<path d="M16 8.46388C16 12.3912 12.4183 15.575 8 15.575C3.58172 15.575 0 12.3912 0 8.46388C0 5.89754 1.5294 3.64872 3.82222 2.39828C5.03818 1.73513 6.46886 1.975 8 1.975C9.49399 1.975 10.8923 1.7168 12.0889 2.3505C14.431 3.5909 16 5.86452 16 8.46388Z" fill="#FF4D00"/>
<path d="M8 15.0417C3.81548 15.0417 0.533333 12.0394 0.533333 8.46388C0.533333 6.1217 1.92908 4.03824 4.07758 2.8665C4.58163 2.59161 5.14854 2.49265 5.81035 2.471C6.14171 2.46017 6.48664 2.46881 6.85472 2.48092C6.90737 2.48266 6.96053 2.48446 7.01416 2.48628C7.33056 2.49703 7.66314 2.50833 8 2.50833C8.35293 2.50833 8.70012 2.49439 9.02885 2.4812C9.0601 2.47994 9.09118 2.4787 9.12208 2.47747C9.48282 2.46313 9.81997 2.45138 10.1446 2.45832C10.7928 2.47218 11.3462 2.5607 11.8393 2.82182C14.0347 3.98453 15.4667 6.09172 15.4667 8.46388C15.4667 12.0394 12.1845 15.0417 8 15.0417ZM8 15.575C12.4183 15.575 16 12.3912 16 8.46388C16 5.86452 14.431 3.5909 12.0889 2.3505C11.166 1.86172 10.123 1.90355 9.00867 1.94824C8.6783 1.96149 8.34165 1.975 8 1.975C7.67297 1.975 7.35051 1.96405 7.03376 1.9533C5.8675 1.91373 4.77847 1.87677 3.82222 2.39828C1.5294 3.64872 0 5.89754 0 8.46388C0 12.3912 3.58172 15.575 8 15.575Z" fill="black"/>
<path d="M12.3507 13.8109C11.133 14.5831 9.6354 15.0417 7.99999 15.0417C3.81548 15.0417 0.533325 12.0394 0.533325 8.46389C0.533325 6.1217 1.92907 4.03824 4.07757 2.86651C4.53354 2.61784 5.04094 2.51313 5.6235 2.4794C4.55721 3.69863 3.9111 5.2947 3.9111 7.04167C3.9111 10.8708 7.01526 13.975 10.8444 13.975C11.3617 13.975 11.8657 13.9184 12.3507 13.8109Z" fill="black" fill-opacity="0.26"/>
<path d="M8.88888 2.83427L7.99999 4.01945L7.1111 2.83427L5.42221 3.58847L5.95555 1.97231L5.15555 0.463898L7.99999 1.75683L10.8444 0.463898L10.0444 1.97231L10.5778 3.58847L8.88888 2.83427Z" fill="#B2DF40"/>
<path d="M5.0908 0.402985C5.11687 0.375273 5.15769 0.367227 5.19232 0.382971L7.99998 1.65918L10.8076 0.382971C10.8423 0.367227 10.8831 0.375273 10.9092 0.402985C10.9352 0.430696 10.9408 0.471927 10.923 0.50554L10.1407 1.98046L10.6622 3.56062C10.6732 3.59404 10.6635 3.63083 10.6374 3.65442C10.6112 3.67802 10.5737 3.68399 10.5415 3.66963L8.91741 2.94436L8.0711 4.07278C8.05431 4.09516 8.02796 4.10834 7.99998 4.10834C7.97201 4.10834 7.94566 4.09516 7.92887 4.07278L7.08256 2.94436L5.45845 3.66963C5.42631 3.68399 5.38873 3.67802 5.36261 3.65442C5.3365 3.63083 5.32677 3.59404 5.3378 3.56062L5.85925 1.98046L5.07701 0.50554C5.05919 0.471927 5.06473 0.430696 5.0908 0.402985ZM5.35635 0.65281L6.03407 1.93066C6.04542 1.95206 6.04754 1.97716 6.03995 2.00017L5.56967 3.42527L7.07485 2.7531C7.11275 2.73618 7.15731 2.74773 7.18221 2.78093L7.99998 3.8713L8.81776 2.78093C8.84266 2.74773 8.88722 2.73618 8.92512 2.7531L10.4303 3.42527L9.96002 2.00017C9.95243 1.97716 9.95455 1.95206 9.9659 1.93066L10.6436 0.65281L8.03677 1.83774C8.0134 1.84837 7.98657 1.84837 7.9632 1.83774L5.35635 0.65281Z" fill="black"/>
<path d="M6.03407 1.93067L5.35635 0.652817L7.00911 1.40407L8.04205 2.15454L7.64013 3.3915L7.18221 2.78093C7.15731 2.74773 7.11275 2.73618 7.07485 2.7531L5.56967 3.42528L6.03995 2.00017C6.04755 1.97717 6.04542 1.95207 6.03407 1.93067Z" fill="black" fill-opacity="0.15"/>
</svg>

