<svg width="24" height="24" viewBox="0 0 24 24" fill="none" xmlns="http://www.w3.org/2000/svg">
<path d="M24 12.6958C24 18.5869 18.6274 23.3625 12 23.3625C5.37258 23.3625 0 18.5869 0 12.6958C0 8.84633 2.2941 5.47309 5.73333 3.59743C7.55727 2.60271 9.70328 2.96251 12 2.96251C14.241 2.96251 16.3385 2.57521 18.1333 3.52577C21.6465 5.38636 24 8.79679 24 12.6958Z" fill="#FF4D00"/>
<path d="M12 22.5625C5.72322 22.5625 0.8 18.0591 0.8 12.6958C0.8 9.18256 2.89361 6.05737 6.11637 4.29977C6.87245 3.88743 7.7228 3.73899 8.71552 3.70652C9.21257 3.69027 9.72996 3.70323 10.2821 3.7214C10.361 3.724 10.4408 3.72671 10.5212 3.72944C10.9958 3.74556 11.4947 3.76251 12 3.76251C12.5294 3.76251 13.0502 3.7416 13.5433 3.72181C13.5901 3.71993 13.6368 3.71806 13.6831 3.71622C14.2242 3.69471 14.73 3.67709 15.2169 3.6875C16.1892 3.70828 17.0193 3.84106 17.7589 4.23274C21.0521 5.97682 23.2 9.13759 23.2 12.6958C23.2 18.0591 18.2768 22.5625 12 22.5625ZM12 23.3625C18.6274 23.3625 24 18.5869 24 12.6958C24 8.79679 21.6465 5.38636 18.1333 3.52577C16.7489 2.79259 15.1845 2.85534 13.513 2.92238C13.0174 2.94226 12.5125 2.96251 12 2.96251C11.5094 2.96251 11.0258 2.9461 10.5506 2.92997C8.80125 2.8706 7.1677 2.81517 5.73333 3.59743C2.2941 5.47309 0 8.84633 0 12.6958C0 18.5869 5.37258 23.3625 12 23.3625Z" fill="black"/>
<path d="M18.526 20.7164C16.6995 21.8746 14.4531 22.5625 12 22.5625C5.72321 22.5625 0.799988 18.0591 0.799988 12.6958C0.799988 9.18256 2.8936 6.05737 6.11636 4.29977C6.80031 3.92676 7.56141 3.7697 8.43526 3.7191C6.83582 5.54795 5.86665 7.94205 5.86665 10.5625C5.86665 16.3063 10.5229 20.9625 16.2667 20.9625C17.0425 20.9625 17.7986 20.8775 18.526 20.7164Z" fill="black" fill-opacity="0.26"/>
<path d="M13.3333 4.25139L12 6.02916L10.6667 4.25139L8.13334 5.3827L8.93334 2.95846L7.73334 0.695831L12 2.63522L16.2667 0.695831L15.0667 2.95846L15.8667 5.3827L13.3333 4.25139Z" fill="#B2DF40"/>
<path d="M7.63623 0.604477C7.67534 0.562909 7.73656 0.55084 7.78852 0.574456L12 2.48877L16.2115 0.574456C16.2635 0.55084 16.3247 0.562909 16.3638 0.604477C16.4029 0.646044 16.4112 0.707891 16.3845 0.75831L15.2111 2.97069L15.9933 5.34092C16.0098 5.39106 15.9952 5.44624 15.9561 5.48164C15.9169 5.51703 15.8605 5.52598 15.8123 5.50445L13.3761 4.41654L12.1067 6.10917C12.0815 6.14275 12.042 6.1625 12 6.1625C11.958 6.1625 11.9185 6.14275 11.8933 6.10917L10.6239 4.41654L8.18771 5.50445C8.1395 5.52598 8.08313 5.51703 8.04395 5.48164C8.00478 5.44624 7.99018 5.39106 8.00672 5.34092L8.7889 2.97069L7.61555 0.75831C7.58881 0.707891 7.59712 0.646044 7.63623 0.604477ZM8.03456 0.979216L9.05113 2.89599C9.06816 2.92809 9.07134 2.96575 9.05996 3.00025L8.35453 5.13791L10.6123 4.12965C10.6691 4.10426 10.736 4.12159 10.7733 4.17139L12 5.80695L13.2267 4.17139C13.264 4.12159 13.3309 4.10426 13.3877 4.12965L15.6455 5.13791L14.9401 3.00025C14.9287 2.96575 14.9319 2.92809 14.9489 2.89599L15.9655 0.979216L12.0552 2.75661C12.0201 2.77255 11.9799 2.77255 11.9448 2.75661L8.03456 0.979216Z" fill="black"/>
<path d="M9.05112 2.89599L8.03455 0.979218L10.5137 2.1061L12.0631 3.2318L11.4602 5.08724L10.7733 4.17139C10.736 4.12159 10.6691 4.10427 10.6123 4.12965L8.35452 5.13791L9.05995 3.00025C9.07133 2.96575 9.06815 2.92809 9.05112 2.89599Z" fill="black" fill-opacity="0.15"/>
</svg>

