<svg width="32" height="32" viewBox="0 0 32 32" fill="none" xmlns="http://www.w3.org/2000/svg">
<path d="M32 16.9278C32 24.7825 24.8365 31.15 16 31.15C7.16344 31.15 0 24.7825 0 16.9278C0 11.7951 3.05879 7.29745 7.64444 4.79657C10.0764 3.47027 12.9377 3.95001 16 3.95001C18.988 3.95001 21.7847 3.43361 24.1778 4.70102C28.862 7.18181 32 11.7291 32 16.9278Z" fill="#FF4D00"/>
<path d="M16 30.0833C7.63097 30.0833 1.06667 24.0788 1.06667 16.9278C1.06667 12.2434 3.85815 8.07649 8.15516 5.73302C9.16327 5.18323 10.2971 4.98531 11.6207 4.94202C12.2834 4.92035 12.9733 4.93763 13.7094 4.96186C13.8147 4.96533 13.9211 4.96894 14.0283 4.97258C14.6611 4.99408 15.3263 5.01668 16 5.01668C16.7059 5.01668 17.4002 4.9888 18.0577 4.96241C18.1202 4.9599 18.1824 4.95741 18.2442 4.95495C18.9656 4.92627 19.6399 4.90278 20.2892 4.91666C21.5856 4.94437 22.6925 5.12141 23.6785 5.64365C28.0694 7.96908 30.9333 12.1835 30.9333 16.9278C30.9333 24.0788 24.369 30.0833 16 30.0833ZM16 31.15C24.8365 31.15 32 24.7825 32 16.9278C32 11.7291 28.862 7.18181 24.1778 4.70102C22.3319 3.72345 20.246 3.80711 18.0173 3.8965C17.3566 3.923 16.6833 3.95001 16 3.95001C15.3459 3.95001 14.701 3.92812 14.0675 3.90662C11.735 3.82747 9.55693 3.75355 7.64444 4.79657C3.05879 7.29745 0 11.7951 0 16.9278C0 24.7825 7.16344 31.15 16 31.15Z" fill="black"/>
<path d="M24.7014 27.6219C22.266 29.1662 19.2708 30.0833 16 30.0833C7.63098 30.0833 1.06668 24.0788 1.06668 16.9278C1.06668 12.2434 3.85817 8.07649 8.15517 5.73302C9.06712 5.23567 10.0819 5.02627 11.247 4.9588C9.11445 7.39727 7.82224 10.5894 7.82224 14.0833C7.82224 21.7417 14.0306 27.95 21.6889 27.95C22.7234 27.95 23.7315 27.8367 24.7014 27.6219Z" fill="black" fill-opacity="0.26"/>
<path d="M17.7778 5.66852L16 8.03889L14.2222 5.66852L10.8444 7.17694L11.9111 3.94461L10.3111 0.92778L16 3.51364L21.6889 0.92778L20.0889 3.94461L21.1555 7.17694L17.7778 5.66852Z" fill="#B2DF40"/>
<path d="M10.1816 0.805969C10.2338 0.750546 10.3154 0.734453 10.3847 0.765941L16 3.31836L21.6153 0.765941C21.6846 0.734453 21.7662 0.750546 21.8184 0.805969C21.8705 0.861392 21.8816 0.943855 21.8459 1.01108L20.2815 3.96092L21.3244 7.12123C21.3464 7.18808 21.327 7.26165 21.2747 7.30885C21.2225 7.35605 21.1473 7.36797 21.0831 7.33927L17.8349 5.88871L16.1422 8.14556C16.1086 8.19033 16.056 8.21667 16 8.21667C15.944 8.21667 15.8914 8.19033 15.8578 8.14556L14.1651 5.88871L10.9169 7.33927C10.8527 7.36797 10.7775 7.35605 10.7253 7.30885C10.673 7.26165 10.6536 7.18808 10.6756 7.12123L11.7185 3.96092L10.1541 1.01108C10.1184 0.943855 10.1295 0.861392 10.1816 0.805969ZM10.7127 1.30562L12.0682 3.86132C12.0909 3.90412 12.0951 3.95433 12.0799 4.00033L11.1394 6.85054L14.1497 5.5062C14.2255 5.47235 14.3146 5.49546 14.3644 5.56186L16 7.7426L17.6356 5.56186C17.6854 5.49546 17.7745 5.47235 17.8503 5.5062L20.8606 6.85054L19.9201 4.00033C19.9049 3.95433 19.9091 3.90412 19.9318 3.86132L21.2873 1.30562L16.0736 3.67549C16.0268 3.69673 15.9732 3.69673 15.9264 3.67549L10.7127 1.30562Z" fill="black"/>
<path d="M12.0682 3.86132L10.7127 1.30562L14.0183 2.80813L16.0841 4.30907L15.2803 6.78299L14.3644 5.56185C14.3146 5.49545 14.2255 5.47235 14.1497 5.50619L11.1394 6.85054L12.0799 4.00033C12.0951 3.95432 12.0909 3.90412 12.0682 3.86132Z" fill="black" fill-opacity="0.15"/>
</svg>

