<svg width="48" height="48" viewBox="0 0 48 48" fill="none" xmlns="http://www.w3.org/2000/svg">
<path d="M48 25.3917C48 37.1737 37.2548 46.725 24 46.725C10.7452 46.725 0 37.1737 0 25.3917C0 17.6926 4.58819 10.9462 11.4667 7.19485C15.1145 5.2054 19.4066 5.92501 24 5.92501C28.482 5.92501 32.677 5.15041 36.2667 7.05152C43.293 10.7727 48 17.5936 48 25.3917Z" fill="#FF4D00"/>
<path d="M24 45.125C11.4464 45.125 1.6 36.1181 1.6 25.3917C1.6 18.3651 5.78723 12.1147 12.2327 8.59953C13.7449 7.77484 15.4456 7.47796 17.431 7.41303C18.4251 7.38052 19.4599 7.40644 20.5642 7.44279C20.7221 7.44798 20.8816 7.4534 21.0425 7.45887C21.9917 7.49111 22.9894 7.52501 24 7.52501C25.0588 7.52501 26.1004 7.48319 27.0866 7.44361C27.1803 7.43984 27.2735 7.4361 27.3662 7.43242C28.4485 7.3894 29.4599 7.35416 30.4337 7.37498C32.3784 7.41655 34.0387 7.68211 35.5178 8.46547C42.1041 11.9536 46.4 18.2752 46.4 25.3917C46.4 36.1181 36.5535 45.125 24 45.125ZM24 46.725C37.2548 46.725 48 37.1737 48 25.3917C48 17.5936 43.293 10.7727 36.2667 7.05152C33.4979 5.58516 30.369 5.71066 27.026 5.84474C26.0349 5.8845 25.0249 5.92501 24 5.92501C23.0189 5.92501 22.0515 5.89218 21.1013 5.85993C17.6025 5.74119 14.3354 5.63032 11.4667 7.19485C4.58819 10.9462 0 17.6926 0 25.3917C0 37.1737 10.7452 46.725 24 46.725Z" fill="black"/>
<path d="M37.052 41.4328C33.399 43.7493 28.9062 45.125 24 45.125C11.4465 45.125 1.60001 36.1181 1.60001 25.3917C1.60001 18.3651 5.78723 12.1147 12.2327 8.59953C13.6007 7.85351 15.1229 7.5394 16.8705 7.4382C13.6717 11.0959 11.7333 15.8841 11.7333 21.125C11.7333 32.6125 21.0458 41.925 32.5333 41.925C34.0851 41.925 35.5972 41.7551 37.052 41.4328Z" fill="black" fill-opacity="0.26"/>
<path d="M26.6667 8.50279L24 12.0583L21.3333 8.50279L16.2667 10.7654L17.8667 5.91693L15.4667 1.39168L24 5.27046L32.5333 1.39168L30.1333 5.91693L31.7333 10.7654L26.6667 8.50279Z" fill="#B2DF40"/>
<path d="M15.2724 1.20895C15.3507 1.12582 15.4731 1.10168 15.577 1.14891L24 4.97754L32.423 1.14891C32.5269 1.10168 32.6493 1.12582 32.7276 1.20895C32.8058 1.29209 32.8224 1.41578 32.7689 1.51662L30.4222 5.94138L31.9866 10.6818C32.0197 10.7821 31.9905 10.8925 31.9121 10.9633C31.8338 11.0341 31.721 11.052 31.6246 11.0089L26.7523 8.83307L24.2133 12.2183C24.163 12.2855 24.0839 12.325 24 12.325C23.9161 12.325 23.837 12.2855 23.7867 12.2183L21.2477 8.83307L16.3754 11.0089C16.279 11.052 16.1662 11.0341 16.0879 10.9633C16.0095 10.8925 15.9803 10.7821 16.0134 10.6818L17.5778 5.94138L15.2311 1.51662C15.1776 1.41578 15.1942 1.29209 15.2724 1.20895ZM16.0691 1.95843L18.1023 5.79198C18.1363 5.85618 18.1427 5.93149 18.1199 6.0005L16.709 10.2758L21.2246 8.2593C21.3383 8.20853 21.472 8.24318 21.5467 8.34279L24 11.6139L26.4533 8.34279C26.528 8.24318 26.6617 8.20853 26.7754 8.2593L31.2909 10.2758L29.8801 6.0005C29.8573 5.93149 29.8637 5.85618 29.8977 5.79198L31.9309 1.95843L24.1103 5.51323C24.0402 5.5451 23.9598 5.5451 23.8897 5.51323L16.0691 1.95843Z" fill="black"/>
<path d="M18.1022 5.79199L16.0691 1.95844L21.0274 4.2122L24.1262 6.46361L22.9204 10.1745L21.5467 8.34279C21.472 8.24319 21.3383 8.20853 21.2246 8.2593L16.709 10.2758L18.1199 6.0005C18.1427 5.93149 18.1363 5.85618 18.1022 5.79199Z" fill="black" fill-opacity="0.15"/>
</svg>

