<svg width="64" height="64" viewBox="0 0 64 64" fill="none" xmlns="http://www.w3.org/2000/svg">
<path d="M64 33.8556C64 49.565 49.6731 62.3 32 62.3C14.3269 62.3 0 49.565 0 33.8556C0 23.5902 6.11759 14.5949 15.2889 9.59314C20.1527 6.94054 25.8754 7.90002 32 7.90002C37.976 7.90002 43.5693 6.86722 48.3555 9.40204C57.7239 14.3636 64 23.4581 64 33.8556Z" fill="#FF4D00"/>
<path d="M32 60.1667C15.2619 60.1667 2.13333 48.1575 2.13333 33.8556C2.13333 24.4868 7.7163 16.153 16.3103 11.466C18.3265 10.3665 20.5941 9.97062 23.2414 9.88405C24.5669 9.8407 25.9466 9.87527 27.4189 9.92372C27.6295 9.93065 27.8421 9.93788 28.0567 9.94517C29.3222 9.98816 30.6525 10.0334 32 10.0334C33.4117 10.0334 34.8005 9.9776 36.1154 9.92482C36.2404 9.9198 36.3647 9.91481 36.4883 9.9099C37.9313 9.85254 39.2799 9.80556 40.5783 9.83332C43.1713 9.88875 45.3849 10.2428 47.3571 11.2873C56.1388 15.9382 61.8667 24.3669 61.8667 33.8556C61.8667 48.1575 48.7381 60.1667 32 60.1667ZM32 62.3C49.6731 62.3 64 49.565 64 33.8556C64 23.4581 57.7239 14.3636 48.3555 9.40204C44.6638 7.44689 40.492 7.61422 36.0347 7.793C34.7132 7.84601 33.3666 7.90002 32 7.90002C30.6919 7.90002 29.4021 7.85625 28.135 7.81325C23.47 7.65493 19.1139 7.5071 15.2889 9.59314C6.11759 14.5949 0 23.5902 0 33.8556C0 49.565 14.3269 62.3 32 62.3Z" fill="black"/>
<path d="M49.4027 55.2437C44.5319 58.3324 38.5416 60.1667 32 60.1667C15.2619 60.1667 2.13333 48.1575 2.13333 33.8556C2.13333 24.4868 7.7163 16.153 16.3103 11.466C18.1342 10.4713 20.1638 10.0525 22.494 9.9176C18.2289 14.7945 15.6444 21.1788 15.6444 28.1667C15.6444 43.4834 28.0611 55.9 43.3778 55.9C45.4468 55.9 47.4629 55.6734 49.4027 55.2437Z" fill="black" fill-opacity="0.26"/>
<path d="M35.5556 11.3371L32 16.0778L28.4444 11.3371L21.6889 14.3539L23.8222 7.88924L20.6222 1.85558L32 7.02729L43.3778 1.85558L40.1778 7.88924L42.3111 14.3539L35.5556 11.3371Z" fill="#B2DF40"/>
<path d="M20.3633 1.61194C20.4675 1.50109 20.6308 1.46891 20.7694 1.53188L32 6.63672L43.2306 1.53188C43.3692 1.46891 43.5325 1.50109 43.6367 1.61194C43.741 1.72278 43.7632 1.88771 43.6919 2.02216L40.5629 7.92184L42.6488 14.2425C42.6929 14.3762 42.6539 14.5233 42.5495 14.6177C42.445 14.7121 42.2947 14.7359 42.1661 14.6785L35.6697 11.7774L32.2844 16.2911C32.2173 16.3807 32.1119 16.4333 32 16.4333C31.8881 16.4333 31.7827 16.3807 31.7156 16.2911L28.3303 11.7774L21.8339 14.6785C21.7053 14.7359 21.555 14.7121 21.4505 14.6177C21.3461 14.5233 21.3071 14.3762 21.3512 14.2425L23.437 7.92184L20.3081 2.02216C20.2368 1.88771 20.259 1.72278 20.3633 1.61194ZM21.4255 2.61124L24.1363 7.72265C24.1817 7.80824 24.1902 7.90865 24.1599 8.00066L22.2787 13.7011L28.2995 11.0124C28.451 10.9447 28.6293 10.9909 28.7289 11.1237L32 15.4852L35.2711 11.1237C35.3707 10.9909 35.549 10.9447 35.7005 11.0124L41.7213 13.7011L39.8401 8.00066C39.8098 7.90865 39.8183 7.80824 39.8637 7.72265L42.5745 2.61124L32.1471 7.35097C32.0536 7.39346 31.9464 7.39346 31.8529 7.35097L21.4255 2.61124Z" fill="black"/>
<path d="M24.1363 7.72264L21.4255 2.61124L28.0365 5.61625L32.1682 8.61813L30.5606 13.566L28.7289 11.1237C28.6293 10.9909 28.451 10.9447 28.2995 11.0124L22.2787 13.7011L24.1599 8.00066C24.1902 7.90865 24.1817 7.80823 24.1363 7.72264Z" fill="black" fill-opacity="0.15"/>
</svg>

